<svg id="Layer_1" xmlns="http://www.w3.org/2000/svg" viewBox="0 0 362.4 87.9"><style>.st0{fill-rule:evenodd;clip-rule:evenodd}.st0,.st1{fill:#9e8a6c}</style><path class="st0" d="M76.1 13.6L88.7 1c22.3 0 44.7 0 67 .1-.2.1-.3.2-.5.3-5 3.3-9.3 7.4-13 12.3H121v73.2h-14V13.7c-5.6 0-15.1 0-30.9-.1M0 13.6L12.6 1c22.5 0 45 0 67.5.1L67.5 13.7H45v73.2H30.9V13.7c-5.6 0-15 0-30.9-.1M181.7 28.7c-2.6 1.4-5.1 3.2-7.5 5.5l8.2 8.2 5.5-5.5c-2.6-2.6-4.6-5.4-6.2-8.2m-3.1-8.1c-4.4.7-8.7 2.6-12.3 5.8l5.8 5.8c2.7-2.5 5.5-4.5 8.3-6-.9-1.9-1.5-3.8-1.8-5.6zm4.1 4.5c4.3-1.8 8.4-2.3 11.8-1.3-4.1-2.6-8.9-3.7-13.6-3.5.4 1.6 1 3.2 1.8 4.8zm7 9.9l8.3-8.3c-3.7-1.7-8.8-1.3-14 .9 1.5 2.5 3.4 5 5.7 7.4zM184 62.4c.7 1.7 1.2 3.3 1.4 4.9 4.5-.7 8.9-2.6 12.5-5.9l-5.3-5.3c-2.7 2.7-5.7 4.8-8.6 6.3zm-17.1-19c2.8 1.6 5.6 3.6 8.2 6.1l5.5-5.5-8.2-8.2c-2.2 2.5-4.1 5.1-5.5 7.6zm-8.2-3.1c1.8.4 3.8 1 5.7 1.9 1.5-2.8 3.5-5.6 6-8.3l-5.9-5.9c-3.2 3.6-5.1 7.9-5.8 12.3zm4.6 4.1c-1.6-.8-3.3-1.4-4.9-1.8-.3 4.6.8 9.3 3.3 13.4-.8-3.3-.2-7.4 1.6-11.6zm9.9 7c-2.4-2.3-4.9-4.2-7.5-5.7-2.3 5.2-2.8 10.4-1 14.2l8.5-8.5zm7.3 9.4c-1.4-2.6-3.2-5.1-5.4-7.6l-8.5 8.5c3.7 1.7 8.7 1.3 13.9-.9zm2.6 6.8c-.3-1.3-.8-2.7-1.4-4.1-3.7 1.6-7.4 2.1-10.4 1.6 3.7 1.8 7.8 2.7 11.8 2.5zm17.4-42.1c3.4 3.4 5.7 7.6 6.8 11.9h-2.5c-.5-1.6-1.1-3.2-1.9-4.8.3 1.5.4 3.1.2 4.8h-2.6c.7-3.3.5-6.5-.7-9l-15.7 15.7-1.7 1.7-2.1 2.1-5.2 5.2h3.4c1.7 2.1 3.2 4.3 4.3 6.5 2.7-1.4 5.3-3.3 7.8-5.7l-.8-.8h5.6c-.3.4-.7.7-1 1.1l5.3 5.3.3-.3v3.5c-10.2 9.7-26.4 9.5-36.4-.5-10.2-10.2-10.2-26.7 0-36.9 10.2-10 26.7-10 36.9.2z"/><path class="st1" d="M302.5 68.1c1.8-1 2.4-1.2 3.6-1.2 2.5 0 4.2 1.9 4.2 4.7 0 2.9-1.9 4.9-4.7 4.9-1.1 0-2.2-.2-3.2-.7v-7.7zm-3.1-3.2c.2.9.3 1.8.3 3v15.2l2.8-.3v-4.5c1.4.4 2.4.6 3.5.6 4.1 0 7.2-3.1 7.2-7.3 0-4-2.9-7.1-6.6-7.1-1.4 0-2.6.3-4.4 1.2 0-.5-.1-.8-.2-1.2l-2.6.4zm-3.3-.2l-2.8.3v6.8c0 1.6-.3 2.4-1.1 3.2-.9 1-2.2 1.5-3.5 1.5-.9 0-1.7-.3-2.1-.8-.5-.6-.6-1.1-.6-3v-8.1l-2.8.3v8.6c0 1.8.3 2.8 1 3.7.8 1 2.3 1.6 3.9 1.6 2 0 3.5-.7 5.2-2.3v2.2l2.8-.3V64.7zm-22.4 2.2c2.4 0 4.3 2.1 4.3 4.8 0 2.7-1.9 4.8-4.4 4.8-2.5 0-4.3-2-4.3-4.9 0-2.6 1.9-4.7 4.4-4.7zm0-2.4c-4.1 0-7.2 3.1-7.2 7.2 0 4 3.1 7.1 7.2 7.1s7.2-3.1 7.2-7.2c0-4-3.2-7.1-7.2-7.1zm-12.4 14V72c0-2 .2-2.8 1-3.6.8-.9 2-1.3 3.6-1.3l.5-2.5c-2.3.1-3.6.7-5.1 2v-1.9l-2.8.3v13.5h2.8zm-6.9-16.2c-2-1-3.5-1.4-5.5-1.4-5.3 0-9.2 3.9-9.2 9.1 0 5.2 3.9 9 9.2 9 2.2 0 4-.5 6.4-1.7v-8h-7.1V72h4.1v3.4c-1.2.6-2 .8-3.3.8-3.6 0-6.1-2.5-6.1-6.1s2.5-6.2 6-6.2c1.8 0 3 .5 5.3 2.1l.2-3.7zm101.2-13.2c-.7.4-1.1.6-1.7.6-1 0-1.6-.6-1.6-1.6v-7.6h3.5v-2.3h-3.5v-4l-2.8.3v3.7h-2.3v2.3h2.3v7.7c0 2.5 1.4 4 3.8 4 .7 0 1.2-.1 1.9-.4l.4-2.7zm-14.1 2.6v-6.5c0-2 .2-2.8 1-3.6.8-.9 2-1.3 3.6-1.3l.5-2.5c-2.3.1-3.6.7-5.1 2v-1.9l-2.8.3v13.5h2.8zm-12.6-11.6c2.4 0 4.3 2.1 4.3 4.8 0 2.7-1.9 4.8-4.4 4.8-2.5 0-4.3-2-4.3-4.9 0-2.6 1.9-4.7 4.4-4.7zm0-2.4c-4.1 0-7.2 3.1-7.2 7.2 0 4 3.1 7.1 7.2 7.1s7.2-3.1 7.2-7.2c0-4-3.1-7.1-7.2-7.1zm-19.7 3.6c1.8-1 2.4-1.2 3.6-1.2 2.5 0 4.2 1.9 4.2 4.7 0 2.9-1.9 4.9-4.7 4.9-1.1 0-2.2-.2-3.2-.7v-7.7zm-3.1-3.2c.2.9.3 1.8.3 3v15.2l2.8-.3v-4.5c1.4.4 2.4.6 3.5.6 4.1 0 7.2-3.1 7.2-7.3 0-4-2.9-7.1-6.6-7.1-1.4 0-2.6.3-4.4 1.2 0-.5-.1-.8-.2-1.2l-2.6.4zM294.5 51c1.6.8 2.8 1.1 4.3 1.1 3.2 0 5.1-1.6 5.1-4.1 0-1.9-.9-2.9-3.6-4l-1.8-.8c-1.1-.5-1.6-1-1.6-1.6 0-.9.8-1.5 2-1.5 1.1 0 2.2.3 3.9 1.2v-2.8c-1.4-.5-2.5-.8-3.7-.8-2.9 0-5 1.7-5 4.1 0 1.5 1 2.7 3.2 3.6l1.7.7c1.7.7 2 1 2 1.8 0 1-.8 1.7-2.2 1.7-1.4 0-2.7-.4-4.8-1.6l.5 3zm-15.8.7h2.8v-6.8c0-1.6.3-2.4 1.1-3.2.9-1 2.2-1.5 3.5-1.5.9 0 1.7.3 2.1.8.5.6.6 1.1.6 3v7.8h2.8V43c0-1.8-.3-2.8-1-3.7-.8-1-2.3-1.6-3.9-1.6-2 0-3.6.7-5.2 2.3v-2.1l-2.8.3v13.5zm-6.5-3.2c-1.8 1-2.4 1.2-3.6 1.2-2.5 0-4.2-1.9-4.2-4.7 0-2.9 1.9-4.9 4.7-4.9 1.1 0 2.2.2 3.2.7v7.7zm3.1 3.2c-.2-.9-.3-1.8-.3-3V37.9l-2.6.4c-1.4-.4-2.5-.6-3.7-.6-4.1 0-7.2 3.1-7.2 7.3 0 4 2.9 7.1 6.6 7.1 1.4 0 2.6-.3 4.4-1.2 0 .5.1.8.2 1.2l2.6-.4zm-19 0v-6.5c0-2 .2-2.8 1-3.6.8-.9 2-1.3 3.6-1.3l.5-2.5c-2.3.1-3.6.7-5.1 2v-1.9l-2.8.3v13.5h2.8zM247.7 37h5.8v-2.6h-14.7V37h5.9v14.6h3V37zm111.6-15.3c-1.8 1-2.4 1.2-3.6 1.2-2.5 0-4.2-1.9-4.2-4.7 0-2.9 1.9-4.9 4.7-4.9 1.1 0 2.2.2 3.2.7v7.7zm3.1 3.2c-.2-.9-.3-1.8-.3-3V7.3l-2.8.3v3.9c-1.4-.4-2.4-.6-3.5-.6-4.1 0-7.2 3.1-7.2 7.3 0 4 2.9 7.1 6.6 7.1 1.4 0 2.6-.3 4.4-1.2 0 .5.1.8.2 1.2l2.6-.4zm-29.1 0h2.8V18c0-1.6.3-2.4 1.1-3.2.9-1 2.2-1.5 3.5-1.5.9 0 1.7.3 2.1.8.5.6.6 1.1.6 3v7.8h2.8v-8.7c0-1.8-.3-2.8-1-3.7-.8-1-2.3-1.6-3.9-1.6-2 0-3.6.7-5.2 2.3v-2.1l-2.8.3v13.5zm-6.5-3.2c-1.8 1-2.4 1.2-3.6 1.2-2.5 0-4.2-1.9-4.2-4.7 0-2.9 1.9-4.9 4.7-4.9 1.1 0 2.2.2 3.2.7v7.7zm3.1 3.2c-.2-.9-.3-1.8-.3-3V11.1l-2.6.4c-1.4-.4-2.5-.6-3.7-.6-4.1 0-7.2 3.1-7.2 7.3 0 4 2.9 7.1 6.6 7.1 1.4 0 2.6-.3 4.4-1.2 0 .5.1.8.2 1.2l2.6-.4zm-33.1-8c.4-2.3 2-3.6 4.3-3.6 2.1 0 3.6 1.2 3.7 3.1l-8 .5zm9.9 3.8c-2.4 1.6-3.8 2.2-5.6 2.2-2.2 0-3.9-1.3-4.3-3.5l10.6-.7c0-.6.1-1.1.1-1.5 0-3.7-2.6-6.3-6.3-6.3-4 0-7.1 3.1-7.1 7.3 0 4.2 2.8 7.1 7 7.1 1.9 0 2.8-.3 5.5-1.8l.1-2.8zm-18.2 1c-1.8 1-2.4 1.2-3.6 1.2-2.5 0-4.2-1.9-4.2-4.7 0-2.9 1.9-4.9 4.7-4.9 1.1 0 2.2.2 3.2.7v7.7zm3.1 3.2c-.2-.9-.3-1.8-.3-3V7.3l-2.8.3v3.9c-1.4-.4-2.4-.6-3.5-.6-4.1 0-7.2 3.1-7.2 7.3 0 4 2.9 7.1 6.6 7.1 1.4 0 2.6-.3 4.4-1.2 0 .5.1.8.2 1.2l2.6-.4zm-19.4-3.2c-1.8 1-2.4 1.2-3.6 1.2-2.5 0-4.2-1.9-4.2-4.7 0-2.9 1.9-4.9 4.7-4.9 1.1 0 2.2.2 3.2.7v7.7zm3.1 3.2c-.2-.9-.3-1.8-.3-3V11.1l-2.6.4c-1.4-.4-2.5-.6-3.7-.6-4.1 0-7.2 3.1-7.2 7.3 0 4 2.9 7.1 6.6 7.1 1.4 0 2.6-.3 4.4-1.2 0 .5.1.8.2 1.2l2.6-.4zm-19 0v-6.5c0-2 .2-2.8 1-3.6.8-.9 2-1.3 3.6-1.3l.5-2.5c-2.3.1-3.6.7-5.1 2v-1.9l-2.8.3v13.5h2.8zm-8.6-14.7h5.8V7.6h-14.7v2.6h5.9v14.6h3V10.2z"/><path class="st0" d="M226.9 1h4.7v85.8h-4.7zM154.5 77.9c-5-4.1-8.9-9-11.7-14.9-3.7-7.7-5.3-16.8-4-25.3 1-6.6 3.2-12.5 6.7-17.8C152.4 9.5 162.8 2.6 175.3.4c5.4-.9 12.6-.5 17.9.8 6.5 1.6 15.1 6.1 19.8 11l.5.6-10 10-1-.9c-6.2-5.8-15.3-8.7-23.9-7.6-6.9.9-12.8 3.9-17.7 8.9-5.3 5.5-8.7 13.7-8.4 21.4.3 7.6 3.2 14.6 8.4 20 6.6 6.8 15.9 10.1 25.2 8.9 6-.8 10.8-3.1 15.5-6.8v-15l-22.6-.1L191.6 39h24.1v33.6c-6.4 6.7-12.9 11.3-22 13.8-13.7 3.7-28.2.6-39.2-8.5"/></svg>