<svg id="Capa_1" xmlns="http://www.w3.org/2000/svg" viewBox="0 0 97.7 97.7"><style>.st0{fill:#b99877}.st1{fill:#fff}</style><circle class="st0" cx="49.7" cy="39" r="39"/><path class="st1" d="M40.3 30l3.7-3.7h19.8c-.1 0-.1.1-.1.1-1.5 1-2.8 2.2-3.8 3.6h-6.3v21.6h-4.1V30.1c-1.7 0-4.5 0-9.2-.1M17.8 30l3.7-3.7h20L37.8 30h-6.7v21.6h-4.2V30.1c-1.6 0-4.4 0-9.1-.1M71.5 34.5c-.8.4-1.5.9-2.2 1.6l2.4 2.4 1.6-1.6c-.7-.7-1.3-1.6-1.8-2.4m-.9-2.4c-1.3.2-2.6.8-3.6 1.7l1.7 1.7c.8-.7 1.6-1.3 2.5-1.8-.3-.5-.5-1.1-.6-1.6zm1.2 1.3c1.3-.5 2.5-.7 3.5-.4-1.2-.8-2.6-1.1-4-1 .1.5.3 1 .5 1.4zm2.1 3l2.5-2.5c-1.1-.5-2.6-.4-4.1.3.4.7.9 1.5 1.6 2.2zm-1.7 8.1c.2.5.4 1 .4 1.4 1.3-.2 2.6-.8 3.7-1.7l-1.6-1.6c-.7.8-1.6 1.4-2.5 1.9zm-5-5.7c.8.5 1.7 1.1 2.4 1.8l1.6-1.6-2.4-2.4c-.7.7-1.2 1.5-1.6 2.2zm-2.5-.9c.5.1 1.1.3 1.7.6.4-.8 1-1.7 1.8-2.5l-1.7-1.7c-1 1.1-1.6 2.3-1.8 3.6zm1.4 1.2c-.5-.2-1-.4-1.4-.5-.1 1.4.2 2.8 1 4-.3-1-.1-2.2.4-3.5zm2.9 2.1c-.7-.7-1.4-1.2-2.2-1.7-.7 1.5-.8 3.1-.3 4.2l2.5-2.5zm2.2 2.8c-.4-.8-.9-1.5-1.6-2.2l-2.5 2.5c1.1.5 2.5.3 4.1-.3zm.8 2c-.1-.4-.2-.8-.4-1.2-1.1.5-2.2.6-3.1.5 1.1.5 2.3.8 3.5.7zm5.1-12.4c1 1 1.7 2.2 2 3.5h-.7c-.1-.5-.3-.9-.6-1.4.1.4.1.9.1 1.4h-.8c.2-1 .1-1.9-.2-2.7L72.3 39l-.5.5-.6.6-1.5 1.5h1c.5.6.9 1.3 1.3 1.9.8-.4 1.6-1 2.3-1.7l-.2-.2h1.7l-.3.3 1.6 1.6.1-.1v1c-3 2.9-7.8 2.8-10.8-.1-3-3-3-7.9 0-10.9 2.8-2.9 7.7-2.9 10.7.2z"/><path class="st1" d="M63.5 49c-1.5-1.2-2.6-2.7-3.5-4.4-1.1-2.3-1.6-5-1.2-7.5.3-2 .9-3.7 2-5.3 2-3.1 5.1-5.1 8.8-5.8 1.6-.3 3.7-.1 5.3.2 1.9.5 4.5 1.8 5.9 3.3l.1.2-3 3-.3-.3c-1.8-1.7-4.5-2.6-7.1-2.2-2 .3-3.8 1.2-5.2 2.6-1.6 1.6-2.6 4.1-2.5 6.3.1 2.2.9 4.3 2.5 5.9 2 2 4.7 3 7.5 2.6 1.8-.2 3.2-.9 4.6-2v-4.4h-6.7l3.7-3.7h7.1v9.9c-1.9 2-3.8 3.3-6.5 4.1-4 1.2-8.3.2-11.5-2.5"/><path class="st0" d="M19.1 63.2l30.6 34.5 30.6-34.5z"/></svg>